<?xml version="1.0" encoding="UTF-8"?>
<svg version="1.1" xmlns="http://www.w3.org/2000/svg" width="16" height="16">
<path d="M0 0 C2.5 1.5 2.5 1.5 4 4 C4.791013 8.02098277 4.62153384 10.96411027 2.5 14.5 C-1.03588973 16.62153384 -3.97901723 16.791013 -8 16 C-10.5 14.5 -10.5 14.5 -12 12 C-12.791013 7.97901723 -12.62153384 5.03588973 -10.5 1.5 C-6.96411027 -0.62153384 -4.02098277 -0.791013 0 0 Z " fill="#494647" transform="translate(12,0)"/>
<path d="M0 0 C2.5 1.5 2.5 1.5 4 4 C4.791013 8.02098277 4.62153384 10.96411027 2.5 14.5 C-1.03588973 16.62153384 -3.97901723 16.791013 -8 16 C-10.5 14.5 -10.5 14.5 -12 12 C-12.791013 7.97901723 -12.62153384 5.03588973 -10.5 1.5 C-6.96411027 -0.62153384 -4.02098277 -0.791013 0 0 Z M-9 3 C-11.280721 4.87424716 -11.280721 4.87424716 -11.375 7.875 C-11.23907185 11.04327157 -11.23907185 11.04327157 -9.375 13.375 C-6.28813568 15.48706506 -4.6717087 15.61195145 -1 15 C1.5 13.5 1.5 13.5 3 11 C3.66666667 8 3.66666667 8 3 5 C1.31167984 2.5608859 1.31167984 2.5608859 -1 1 C-4.24792684 1 -6.07658794 1.6507329 -9 3 Z " fill="#2D2C37" transform="translate(12,0)"/>
<path d="M0 0 C3.125 -0.1875 3.125 -0.1875 6 0 C5.67 0.99 5.34 1.98 5 3 C5 2.34 5 1.68 5 1 C2.39056942 2.0645852 2.39056942 2.0645852 0 4 C-0.83399875 6.91318914 -0.83399875 6.91318914 0 10 C2.37500791 12.87640616 2.37500791 12.87640616 5 15 C2.625 14.6875 2.625 14.6875 0 14 C-1.99825961 11.00261059 -2.27550398 10.36652492 -2.25 7 C-2.25515625 6.319375 -2.2603125 5.63875 -2.265625 4.9375 C-2 3 -2 3 0 0 Z " fill="#30403C" transform="translate(2,1)"/>
<path d="M0 0 C0.99 0 1.98 0 3 0 C2.67 1.32 2.34 2.64 2 4 C0.68 4.33 -0.64 4.66 -2 5 C-2 4.01 -2 3.02 -2 2 C-1.34 2 -0.68 2 0 2 C0 1.34 0 0.68 0 0 Z " fill="#5F6E9E" transform="translate(11,9)"/>
<path d="M0 0 C0.99 0 1.98 0 3 0 C3 0.66 3 1.32 3 2 C3.66 2 4.32 2 5 2 C5 2.99 5 3.98 5 5 C3.68 4.67 2.36 4.34 1 4 C0.67 2.68 0.34 1.36 0 0 Z " fill="#E7F087" transform="translate(2,9)"/>
<path d="M0 0 C0.99 0 1.98 0 3 0 C3 0.99 3 1.98 3 3 C2.34 3 1.68 3 1 3 C1 3.66 1 4.32 1 5 C0.01 5 -0.98 5 -2 5 C-1.125 1.125 -1.125 1.125 0 0 Z " fill="#4EF077" transform="translate(4,2)"/>
<path d="M0 0 C1.32 0.33 2.64 0.66 4 1 C4.33 2.32 4.66 3.64 5 5 C4.01 5 3.02 5 2 5 C1.34 3.35 0.68 1.7 0 0 Z " fill="#F85354" transform="translate(9,2)"/>
</svg>
